# xmcd
#
# Track frame offsets: 
#        150
#        18093
#        30002
#        45566
#        64649
#        86460
#        103526
#        119105
#        141314
#        156464
#        177571
#        195349
#        207715
#        225531
#        241777
#        259684
#        275576
#        292554
#
# Disc length: 4199 seconds
#
# Revision: 0
# Processed by: cddbd v1.5.2PL0 Copyright (c) Steve Scherf et al.
# Submitted via: ExactAudioCopy v0.99pb5
#
DISCID=f2106512
DTITLE=Charlie Landsborough - Nothing Lasts Forever
DYEAR=2010
DGENRE=Country
TTITLE0=01.Rolling Uphill
TTITLE1=02.Welcome To My World
TTITLE2=03.Gotta Get Back
TTITLE3=04.Nothing Lasts Forever
TTITLE4=05.Song For The Mira
TTITLE5=06.Gonna Be Alright Now
TTITLE6=07.Another Goodbye
TTITLE7=08.Turned To Stone
TTITLE8=09.And I LOve You So
TTITLE9=10.The Final Bow
TTITLE10=11.You're Dear To Me
TTITLE11=12.Take These Chains
TTITLE12=13.Australia In My Heart
TTITLE13=14.Let It Be Me
TTITLE14=15.Look Back And Smile
TTITLE15=16.Right Road Now
TTITLE16=17.Help Me Make It Through The Night
TTITLE17=18.Here I am
EXTD=
EXTT0=
EXTT1=
EXTT2=
EXTT3=
EXTT4=
EXTT5=
EXTT6=
EXTT7=
EXTT8=
EXTT9=
EXTT10=
EXTT11=
EXTT12=
EXTT13=
EXTT14=
EXTT15=
EXTT16=
EXTT17=
PLAYORDER=
